<svg xmlns="http://www.w3.org/2000/svg" viewBox="0 0 50 50"><path d="M15.1 21.3c0 .6.1 1 .2 1.3.1.3.3.7.5 1.1.1.1.1.2.1.3 0 .2-.1.3-.3.5l-1 .6c-.1.1-.3.1-.4.1-.2 0-.3-.1-.5-.2-.2-.2-.4-.5-.5-.7-.2-.3-.3-.5-.5-.9-1.2 1.4-2.7 2.1-4.4 2.1-1.3 0-2.3-.4-3-1.1-.7-.7-1.1-1.7-1.1-2.9 0-1.3.5-2.3 1.4-3.1.9-.8 2.1-1.2 3.7-1.2.5 0 1 0 1.6.1.6.1 1.1.2 1.7.3v-1.1c0-1.2-.2-2-.7-2.4-.5-.5-1.3-.7-2.5-.7-.5 0-1.1.1-1.6.2-.6.1-1.1.3-1.6.5-.2.1-.4.2-.5.2h-.2c-.4.2-.5 0-.5-.3v-.7c0-.2 0-.4.1-.5s.2-.2.4-.3c.5-.3 1.2-.5 1.9-.7.7-.2 1.5-.3 2.4-.3 1.8 0 3.1.4 4 1.2.8.8 1.3 2.1 1.3 3.7v4.9zm-6.2 2.3c.5 0 1-.1 1.6-.3.5-.2 1-.5 1.4-1 .2-.3.4-.6.5-1 .1-.4.2-.8.2-1.3v-.6c-.4-.1-.9-.2-1.4-.3-.5-.1-1-.1-1.4-.1-1 0-1.8.2-2.3.6-.5.4-.7 1-.7 1.7s.2 1.2.6 1.6c.3.5.8.7 1.5.7zm12.2 1.6c-.3 0-.5 0-.6-.2-.1-.1-.2-.3-.3-.6l-3.6-11.7c-.1-.3-.1-.5-.1-.6 0-.2.1-.4.4-.4h1.5c.3 0 .5 0 .6.2.1.1.2.3.3.6l2.5 10 2.4-10c.1-.3.2-.5.3-.6.1-.1.3-.2.6-.2h1.2c.3 0 .5 0 .6.2.1.1.2.3.3.6l2.4 10.1 2.6-10.1c.1-.3.2-.5.3-.6.1-.1.3-.2.6-.2h1.4c.2 0 .4.1.4.4v.2c0 .1 0 .2-.1.4L31 24.5c-.1.3-.2.5-.3.6-.1.1-.3.2-.6.2h-1.3c-.3 0-.5 0-.6-.2-.1-.1-.2-.3-.2-.6l-2.3-9.8-2.3 9.7c-.1.3-.2.5-.3.6-.1.1-.3.2-.6.2h-1.4zm19.4.4c-.8 0-1.6-.1-2.3-.3-.8-.2-1.3-.4-1.7-.6-.2-.1-.4-.3-.5-.4-.1-.1-.1-.3-.1-.4v-.8c0-.3.1-.5.3-.5h.3c.1 0 .2.1.4.2.5.2 1.1.4 1.7.5.6.1 1.2.2 1.8.2 1 0 1.7-.2 2.2-.5.5-.3.8-.8.8-1.4 0-.4-.1-.8-.4-1.1-.3-.3-.8-.5-1.5-.8l-2.2-.7c-1.1-.3-1.9-.9-2.4-1.5-.5-.7-.8-1.4-.8-2.2 0-.6.1-1.2.4-1.7.3-.5.6-.9 1.1-1.2.5-.3 1-.6 1.6-.8.6-.2 1.2-.3 1.9-.3.3 0 .7 0 1 .1.3 0 .7.1 1 .2.3.1.6.2.9.2.3.1.5.2.6.3.2.1.4.2.5.4.1.1.1.3.1.5v.7c0 .3-.1.5-.3.5-.1 0-.3-.1-.6-.2-.9-.4-1.8-.6-2.9-.6-.9 0-1.5.1-2 .4-.5.3-.7.7-.7 1.3 0 .4.2.8.5 1.1.3.3.9.6 1.7.8l2.1.7c1.1.3 1.9.8 2.3 1.5.5.6.7 1.3.7 2.1 0 .7-.1 1.2-.4 1.8-.3.5-.6 1-1.1 1.3-.5.4-1 .7-1.7.8-.8.3-1.5.4-2.3.4z" fill="#252f3e"/><path d="M43.4 33c-5 3.7-12.2 5.6-18.4 5.6-8.7 0-16.6-3.2-22.5-8.6-.5-.4 0-1 .5-.7 6.4 3.7 14.3 6 22.5 6 5.5 0 11.6-1.2 17.2-3.5.8-.4 1.5.6.7 1.2zm2.1-2.4c-.6-.8-4.2-.4-5.8-.2-.5.1-.6-.4-.1-.7 2.8-2 7.5-1.4 8.1-.8.5.7-.2 5.4-2.8 7.6-.4.3-.8.2-.6-.3.4-1.4 1.8-4.8 1.2-5.6z" fill="#f90"/></svg>