<svg xmlns="http://www.w3.org/2000/svg" viewBox="0 0 50 50"><circle cx="25" cy="25" r="22.4" fill="#fff"/><path d="M25 2.6C12.6 2.6 2.6 12.6 2.6 25c0 10.5 7.2 19.3 17 21.7-.1-.3-.2-.7-.2-1.1v-3.8h-2.8c-1.5 0-2.9-.7-3.5-1.9-.7-1.3-.8-3.4-2.7-4.7-.5-.4-.1-.9.5-.8 1.2.3 2.1 1.1 3 2.3.9 1.2 1.3 1.5 3 1.5.8 0 2-.1 3.1-.2.6-1.6 1.7-3 3-3.6-7.5-.9-11.1-4.6-11.1-9.7 0-2.2 1-4.2 2.5-6.1-.5-1.7-1.2-5.3.2-6.7 3.4 0 5.4 2.2 5.9 2.7 1.7-.5 3.5-.9 5.4-.9 2 0 3.8.3 5.4.9.5-.5 2.5-2.7 5.9-2.7 1.3 1.3.7 5 .2 6.7 1.6 1.7 2.5 3.9 2.5 6.1 0 5-3.5 8.7-11 9.5 2.1 1.1 3.5 4.1 3.5 6.3v5.1c0 .2-.1.3-.1.5 8.7-3 15-11.3 15-21.1.2-12.3-9.9-22.4-22.3-22.4z"/></svg>