<?xml version="1.0" encoding="utf-8"?>
<!-- Generator: Adobe Illustrator 26.0.3, SVG Export Plug-In . SVG Version: 6.00 Build 0)  -->
<svg version="1.1" id="Capa_1" xmlns:serif="http://www.serif.com/"
	 xmlns="http://www.w3.org/2000/svg" xmlns:xlink="http://www.w3.org/1999/xlink" x="0px" y="0px" viewBox="0 0 150 150"
	 style="enable-background:new 0 0 150 150;" xml:space="preserve">
<style type="text/css">
	.st0{fill:#764ABC;}
</style>
<g>
	<g transform="matrix(0.0469085,0,0,0.0469085,16.3643,19.3298)">
		<path class="st0" d="M1852.8,1775.3c115.3-11.9,202.8-111.3,198.8-230.7c-4-119.3-103.4-214.7-222.7-214.7h-7.9
			c-123.3,4-218.7,107.4-214.7,230.7c4,59.6,27.8,111.3,63.6,147.1c-135.2,266.5-342,461.3-652.2,624.3
			c-210.8,111.3-429.5,151.1-648.2,123.3c-179-23.9-318.1-103.4-405.6-234.6c-127.2-194.9-139.2-405.6-31.8-616.4
			c75.6-151.1,194.8-262.5,270.4-318.2c-15.9-51.7-39.8-139.2-51.7-202.8c-576.6,417.6-517,982.3-342,1248.7
			c131.2,198.8,397.7,322.1,691.9,322.1c79.5,0,159.1-8,238.6-27.8C1248.3,2526.9,1634.1,2224.7,1852.8,1775.3z M2552.7,1282.2
			c-302.2-353.9-747.6-548.8-1256.6-548.8h-63.6c-35.8-71.6-111.3-119.3-194.9-119.3h-8c-123.3,4-218.7,107.4-214.7,230.7
			c4,119.3,103.4,214.7,222.7,214.7h7.9c87.5-4,163-59.7,194.9-135.2h71.6c302.2,0,588.5,87.5,847,258.5
			c198.8,131.2,342,302.2,421.5,509c67.6,167,63.6,330.1-7.9,469.3c-111.3,210.8-298.2,326.1-544.8,326.1
			c-159.1,0-310.2-47.7-389.7-83.5c-43.7,39.8-123.3,103.4-178.9,143.2c171,79.5,346,123.3,513,123.3
			c381.8,0,664.1-210.8,771.5-421.5C2858.9,2017.9,2850.9,1620.2,2552.7,1282.2z M532.5,1842.9c4,119.3,103.4,214.7,222.7,214.7h8
			c123.3-4,218.7-107.4,214.7-230.6c-4-119.3-103.4-214.7-222.7-214.7h-7.9c-8,0-19.9,0-27.8,4c-163-270.4-230.6-564.7-206.8-882.8
			C528.6,494.8,608.1,288,747.3,117c115.3-147.1,338-218.7,489.1-222.7c421.5-8,600.4,517,612.4,727.7
			c51.7,11.9,139.2,39.8,198.8,59.7c-47.7-644.2-445.4-978.3-827.1-978.3c-357.9,0-688,258.5-819.2,640.3
			c-182.9,509-63.6,998.2,159.1,1383.9C540.5,1755.4,528.6,1799.2,532.5,1842.9L532.5,1842.9z"/>
	</g>
</g>
</svg>
